{
  "accessors": [
    {
      "bufferView": 2,
      "componentType": 5126,
      "count": 65532,
      "max": [
        505.1152648925781,
        41.214881896972656,
        139.47779846191406
      ],
      "min": [
        -522.1233520507813,
        -76.55348205566406,
        -194.4847869873047
      ],
      "type": "VEC3"
    },
    {
      "bufferView": 2,
      "byteOffset": 786384,
      "componentType": 5126,
      "count": 65532,
      "max": [
        1.0,
        1.0,
        1.0
      ],
      "min": [
        -1.0,
        -1.0,
        -1.0
      ],
      "type": "VEC3"
    },
    {
      "bufferView": 1,
      "componentType": 5126,
      "count": 65532,
      "max": [
        0.9970579743385315,
        0.9872260093688965
      ],
      "min": [
        0.02981800027191639,
        0.004648000001907349
      ],
      "type": "VEC2"
    },
    {
      "bufferView": 0,
      "componentType": 5125,
      "count": 371445,
      "type": "SCALAR"
    },
    {
      "bufferView": 2,
      "byteOffset": 1572768,
      "componentType": 5126,
      "count": 65532,
      "max": [
        471.2287902832031,
        43.65261459350586,
        29.709020614624023
      ],
      "min": [
        -471.2939758300781,
        -77.17131042480469,
        -164.36578369140625
      ],
      "type": "VEC3"
    },
    {
      "bufferView": 2,
      "byteOffset": 2359152,
      "componentType": 5126,
      "count": 65532,
      "max": [
        1.0,
        0.9999998807907104,
        1.0
      ],
      "min": [
        -1.0,
        -0.9999970197677612,
        -1.0
      ],
      "type": "VEC3"
    },
    {
      "bufferView": 1,
      "byteOffset": 524256,
      "componentType": 5126,
      "count": 65532,
      "max": [
        0.9947180151939392,
        0.9935979843139648
      ],
      "min": [
        0.008213999681174755,
        0.0060640000738203526
      ],
      "type": "VEC2"
    },
    {
      "bufferView": 0,
      "byteOffset": 1485780,
      "componentType": 5125,
      "count": 355914,
      "type": "SCALAR"
    },
    {
      "bufferView": 2,
      "byteOffset": 3145536,
      "componentType": 5126,
      "count": 7586,
      "max": [
        465.0640869140625,
        10.082738876342773,
        -29.9709415435791
      ],
      "min": [
        -383.1792907714844,
        -76.73442077636719,
        -58.21803665161133
      ],
      "type": "VEC3"
    },
    {
      "bufferView": 2,
      "byteOffset": 3236568,
      "componentType": 5126,
      "count": 7586,
      "max": [
        0.9996413588523865,
        0.9997239708900452,
        0.9999351501464844
      ],
      "min": [
        -0.9998767971992493,
        -0.9995445609092712,
        -0.9999897480010986
      ],
      "type": "VEC3"
    },
    {
      "bufferView": 1,
      "byteOffset": 1048512,
      "componentType": 5126,
      "count": 7586,
      "max": [
        0.9817780256271362,
        0.9705410003662109
      ],
      "min": [
        0.011370000429451466,
        0.012272000312805176
      ],
      "type": "VEC2"
    },
    {
      "bufferView": 0,
      "byteOffset": 2909436,
      "componentType": 5125,
      "count": 31479,
      "type": "SCALAR"
    }
  ],
  "asset": {
    "extras": {
      "author": "Mieke Roth (https://sketchfab.com/miekeroth)",
      "license": "CC-BY-4.0 (http://creativecommons.org/licenses/by/4.0/)",
      "source": "https://sketchfab.com/3d-models/gibson-guitar-uv-unwrapped-94f309fe0a884382977f1134d9bc5586",
      "title": "Gibson Guitar Uv Unwrapped"
    },
    "generator": "Sketchfab-12.67.0",
    "version": "2.0"
  },
  "bufferViews": [
    {
      "buffer": 0,
      "byteLength": 3035352,
      "name": "floatBufferViews",
      "target": 34963
    },
    {
      "buffer": 0,
      "byteLength": 1109200,
      "byteOffset": 3035352,
      "byteStride": 8,
      "name": "floatBufferViews",
      "target": 34962
    },
    {
      "buffer": 0,
      "byteLength": 3327600,
      "byteOffset": 4144552,
      "byteStride": 12,
      "name": "floatBufferViews",
      "target": 34962
    }
  ],
  "buffers": [
    {
      "byteLength": 7472152,
      "uri": "scene.bin"
    }
  ],
  "extensionsUsed": [
    "KHR_materials_clearcoat"
  ],
  "materials": [
    {
      "doubleSided": true,
      "extensions": {
        "KHR_materials_clearcoat": {
          "clearcoatFactor": 0.25171493902439024,
          "clearcoatRoughnessFactor": 0.11147103658536585
        }
      },
      "name": "Material.001",
      "pbrMetallicRoughness": {
        "metallicFactor": 0.4651295731707317
      }
    }
  ],
  "meshes": [
    {
      "name": "Object_0",
      "primitives": [
        {
          "attributes": {
            "NORMAL": 1,
            "POSITION": 0,
            "TEXCOORD_0": 2
          },
          "indices": 3,
          "material": 0,
          "mode": 4
        }
      ]
    },
    {
      "name": "Object_1",
      "primitives": [
        {
          "attributes": {
            "NORMAL": 5,
            "POSITION": 4,
            "TEXCOORD_0": 6
          },
          "indices": 7,
          "material": 0,
          "mode": 4
        }
      ]
    },
    {
      "name": "Object_2",
      "primitives": [
        {
          "attributes": {
            "NORMAL": 9,
            "POSITION": 8,
            "TEXCOORD_0": 10
          },
          "indices": 11,
          "material": 0,
          "mode": 4
        }
      ]
    }
  ],
  "nodes": [
    {
      "children": [
        1
      ],
      "matrix": [
        0.9994272589683533,
        0.033840879797935486,
        7.514184785048058e-18,
        0.0,
        0.033821024000644684,
        -0.998840868473053,
        -0.03425037115812324,
        0.0,
        -0.0011590627254918218,
        0.03423075377941154,
        -0.9994133114814758,
        0.0,
        0.530067503452301,
        -43.01443099975586,
        -11.30237579345704,
        1.0
      ],
      "name": "Sketchfab_model"
    },
    {
      "children": [
        2,
        3,
        4
      ],
      "name": "Gibson_gitar_uv_unwrapped.obj.cleaner.materialmerger.gles"
    },
    {
      "mesh": 0,
      "name": "Object_2"
    },
    {
      "mesh": 1,
      "name": "Object_3"
    },
    {
      "mesh": 2,
      "name": "Object_4"
    }
  ],
  "scene": 0,
  "scenes": [
    {
      "name": "Sketchfab_Scene",
      "nodes": [
        0
      ]
    }
  ]
}
